<svg xmlns="http://www.w3.org/2000/svg" xmlns:xlink="http://www.w3.org/1999/xlink" width="500" zoomAndPan="magnify" viewBox="0 0 375 374.999991" height="500" preserveAspectRatio="xMidYMid meet" version="1.0"><defs><g/><clipPath id="b0e92bb435"><path d="M 77 140.902344 L 305.636719 140.902344 L 305.636719 174 L 77 174 Z M 77 140.902344 " clip-rule="nonzero"/></clipPath><clipPath id="a1ef8ebc59"><path d="M 74.636719 169 L 152 169 L 152 187 L 74.636719 187 Z M 74.636719 169 " clip-rule="nonzero"/></clipPath></defs><g clip-path="url(#b0e92bb435)"><path fill="#25366c" d="M 95.792969 164.226562 C 98.640625 163.691406 101.457031 162.984375 104.230469 162.125 C 107 161.25 109.738281 160.253906 112.445312 159.15625 C 115.152344 158.054688 117.839844 156.875 120.535156 155.648438 L 128.683594 151.921875 C 131.433594 150.671875 134.234375 149.445312 137.117188 148.277344 C 137.84375 147.992188 138.5625 147.695312 139.300781 147.421875 L 140.398438 147.003906 L 141.511719 146.597656 C 142.25 146.324219 143.011719 146.070312 143.761719 145.808594 C 144.140625 145.679688 144.523438 145.558594 144.90625 145.433594 C 145.285156 145.3125 145.664062 145.183594 146.050781 145.070312 C 146.824219 144.835938 147.59375 144.59375 148.382812 144.382812 C 148.777344 144.273438 149.164062 144.160156 149.558594 144.058594 L 150.75 143.761719 C 151.542969 143.5625 152.332031 143.355469 153.140625 143.191406 L 154.34375 142.933594 C 154.746094 142.847656 155.148438 142.757812 155.554688 142.691406 L 157.988281 142.253906 L 160.4375 141.886719 C 160.640625 141.859375 160.84375 141.824219 161.050781 141.800781 L 161.667969 141.726562 L 162.898438 141.582031 C 163.308594 141.539062 163.71875 141.480469 164.128906 141.445312 L 165.367188 141.335938 C 168.660156 141.050781 171.96875 140.917969 175.261719 140.949219 C 178.554688 140.980469 181.835938 141.144531 185.082031 141.4375 C 191.578125 142.019531 197.933594 143.121094 204.113281 144.542969 C 210.285156 145.984375 216.289062 147.757812 222.097656 149.792969 C 225 150.8125 227.867188 151.882812 230.679688 153.027344 C 233.492188 154.164062 236.265625 155.359375 238.984375 156.605469 C 233.15625 154.65625 227.285156 152.816406 221.304688 151.234375 C 215.339844 149.636719 209.277344 148.28125 203.152344 147.230469 C 200.089844 146.703125 197.003906 146.28125 193.914062 145.933594 C 192.371094 145.75 190.824219 145.617188 189.277344 145.484375 L 186.953125 145.324219 C 186.179688 145.273438 185.402344 145.25 184.628906 145.210938 C 181.53125 145.082031 178.4375 145.050781 175.363281 145.15625 L 173.0625 145.265625 C 172.296875 145.3125 171.53125 145.375 170.769531 145.425781 L 170.199219 145.46875 L 168.488281 145.632812 C 168.109375 145.671875 167.730469 145.703125 167.351562 145.746094 L 166.222656 145.890625 L 165.09375 146.03125 C 164.714844 146.074219 164.34375 146.144531 163.972656 146.199219 L 162.851562 146.371094 L 162.292969 146.460938 C 162.105469 146.488281 161.921875 146.527344 161.738281 146.558594 L 159.527344 146.972656 L 157.339844 147.453125 C 156.976562 147.527344 156.617188 147.625 156.257812 147.714844 L 155.179688 147.984375 C 154.457031 148.152344 153.757812 148.367188 153.046875 148.566406 L 151.988281 148.871094 C 151.636719 148.972656 151.289062 149.089844 150.941406 149.199219 C 150.242188 149.410156 149.554688 149.652344 148.863281 149.886719 C 143.339844 151.796875 138.058594 154.238281 132.761719 156.804688 C 127.464844 159.371094 122.132812 162.074219 116.410156 164.511719 C 115.320312 164.976562 114.210938 165.433594 113.085938 165.875 C 116.472656 166.132812 119.871094 166.332031 123.28125 166.472656 L 126.515625 166.59375 L 129.753906 166.671875 C 130.835938 166.703125 131.917969 166.703125 133 166.71875 L 134.621094 166.734375 C 135.164062 166.742188 135.707031 166.734375 136.246094 166.734375 C 140.578125 166.753906 144.917969 166.664062 149.261719 166.535156 C 153.605469 166.40625 157.953125 166.207031 162.300781 165.964844 C 166.652344 165.722656 171.007812 165.445312 175.363281 165.125 C 184.078125 164.5 192.800781 163.746094 201.550781 163.007812 C 210.300781 162.269531 219.078125 161.535156 227.890625 160.9375 L 231.195312 160.71875 C 232.296875 160.644531 233.398438 160.578125 234.503906 160.511719 C 236.714844 160.382812 238.929688 160.269531 241.148438 160.167969 C 242.257812 160.113281 243.371094 160.078125 244.480469 160.03125 L 247.816406 159.929688 C 248.933594 159.90625 250.042969 159.882812 251.160156 159.871094 L 252.835938 159.859375 C 253.394531 159.855469 253.949219 159.851562 254.507812 159.855469 C 255.625 159.863281 256.742188 159.863281 257.859375 159.890625 L 259.535156 159.921875 C 260.09375 159.933594 260.652344 159.957031 261.210938 159.976562 L 262.886719 160.039062 L 264.5625 160.128906 C 265.679688 160.179688 266.792969 160.265625 267.90625 160.34375 C 272.363281 160.664062 276.792969 161.207031 281.152344 161.96875 C 285.507812 162.746094 289.777344 163.773438 293.875 165.078125 C 297.972656 166.382812 301.90625 167.957031 305.542969 169.835938 C 297.6875 166.8125 289.21875 164.921875 280.636719 163.984375 C 272.035156 163.027344 263.320312 163.007812 254.648438 163.402344 C 254.105469 163.425781 253.5625 163.453125 253.019531 163.484375 L 251.394531 163.578125 C 250.308594 163.640625 249.226562 163.722656 248.140625 163.792969 L 244.890625 164.035156 C 243.804688 164.125 242.722656 164.210938 241.636719 164.308594 C 239.46875 164.5 237.300781 164.707031 235.128906 164.925781 C 232.957031 165.136719 230.78125 165.367188 228.609375 165.589844 C 219.917969 166.519531 211.226562 167.515625 202.507812 168.488281 C 185.074219 170.425781 167.488281 172.242188 149.65625 172.933594 C 140.746094 173.28125 131.773438 173.328125 122.804688 172.960938 C 118.316406 172.761719 113.832031 172.488281 109.359375 172.066406 C 104.890625 171.640625 100.433594 171.097656 96.003906 170.433594 L 77.523438 167.660156 Z M 95.792969 164.226562 " fill-opacity="1" fill-rule="nonzero"/></g><g clip-path="url(#a1ef8ebc59)"><path fill="#e80f17" d="M 144.839844 183.136719 C 137.949219 184.644531 130.964844 185.753906 123.945312 186.398438 C 115.136719 187.207031 106.167969 187.320312 97.414062 185.90625 C 93.160156 185.21875 88.941406 184.15625 84.953125 182.503906 C 81.679688 181.148438 75.488281 178.949219 74.898438 174.878906 C 74.691406 173.4375 74.632812 171.257812 76.445312 170.132812 C 78.785156 168.683594 81.917969 170.144531 84.105469 170.976562 C 86.714844 171.96875 89.289062 173.023438 92.109375 173.796875 C 95.632812 174.757812 99.273438 175.5625 102.957031 176.273438 C 107.105469 177.078125 111.328125 177.800781 115.59375 178.339844 C 113.488281 178.6875 109.992188 179.160156 108.097656 179.394531 C 105.835938 179.675781 103.5625 179.925781 101.277344 180.121094 C 98.871094 180.332031 96.386719 180.488281 93.898438 180.570312 C 104.964844 182.789062 123.816406 184.738281 151.222656 181.589844 C 149.070312 182.144531 146.917969 182.683594 144.839844 183.136719 Z M 144.839844 183.136719 " fill-opacity="1" fill-rule="nonzero"/></g><g fill="#25366c" fill-opacity="1"><g transform="translate(72.659868, 213.818307)"><g><path d="M 13.828125 -14.34375 C 13.859375 -15.164062 13.617188 -15.800781 13.109375 -16.25 C 12.597656 -16.695312 11.832031 -16.921875 10.8125 -16.921875 C 9.757812 -16.921875 8.921875 -16.707031 8.296875 -16.28125 C 7.671875 -15.851562 7.304688 -15.3125 7.203125 -14.65625 C 7.054688 -13.9375 7.269531 -13.390625 7.84375 -13.015625 C 8.425781 -12.640625 9.140625 -12.351562 9.984375 -12.15625 L 11.71875 -11.71875 C 12.84375 -11.457031 13.816406 -11.078125 14.640625 -10.578125 C 15.472656 -10.078125 16.085938 -9.429688 16.484375 -8.640625 C 16.878906 -7.859375 16.984375 -6.90625 16.796875 -5.78125 C 16.484375 -3.925781 15.546875 -2.453125 13.984375 -1.359375 C 12.429688 -0.265625 10.421875 0.28125 7.953125 0.28125 C 5.503906 0.28125 3.640625 -0.273438 2.359375 -1.390625 C 1.078125 -2.515625 0.585938 -4.164062 0.890625 -6.34375 L 5.03125 -6.34375 C 4.925781 -5.332031 5.195312 -4.570312 5.84375 -4.0625 C 6.5 -3.550781 7.378906 -3.296875 8.484375 -3.296875 C 9.585938 -3.296875 10.5 -3.523438 11.21875 -3.984375 C 11.9375 -4.441406 12.359375 -5.039062 12.484375 -5.78125 C 12.597656 -6.457031 12.382812 -6.984375 11.84375 -7.359375 C 11.3125 -7.734375 10.515625 -8.050781 9.453125 -8.3125 L 7.34375 -8.859375 C 5.71875 -9.273438 4.484375 -9.925781 3.640625 -10.8125 C 2.804688 -11.695312 2.507812 -12.882812 2.75 -14.375 C 2.957031 -15.601562 3.46875 -16.675781 4.28125 -17.59375 C 5.09375 -18.507812 6.117188 -19.222656 7.359375 -19.734375 C 8.597656 -20.242188 9.957031 -20.5 11.4375 -20.5 C 12.9375 -20.5 14.203125 -20.238281 15.234375 -19.71875 C 16.265625 -19.195312 17.015625 -18.472656 17.484375 -17.546875 C 17.960938 -16.628906 18.109375 -15.5625 17.921875 -14.34375 Z M 13.828125 -14.34375 "/></g></g></g><g fill="#25366c" fill-opacity="1"><g transform="translate(90.854531, 213.818307)"><g><path d="M 3.984375 0 L -0.609375 0 L 9.734375 -20.21875 L 15.234375 -20.21875 L 18.859375 0 L 14.28125 0 L 13.546875 -4.609375 L 6.25 -4.609375 Z M 7.890625 -7.953125 L 13.015625 -7.953125 L 11.8125 -15.59375 L 11.65625 -15.59375 Z M 7.890625 -7.953125 "/></g></g></g><g fill="#25366c" fill-opacity="1"><g transform="translate(111.634334, 213.818307)"><g><path d="M 3.84375 -20.21875 L 9.125 -20.21875 L 12.453125 -6.640625 L 12.6875 -6.640625 L 20.5 -20.21875 L 25.765625 -20.21875 L 22.40625 0 L 18.265625 0 L 20.453125 -13.15625 L 20.28125 -13.15625 L 12.890625 -0.09375 L 10.0625 -0.09375 L 7.015625 -13.203125 L 6.84375 -13.203125 L 4.640625 0 L 0.5 0 Z M 3.84375 -20.21875 "/></g></g></g><g fill="#25366c" fill-opacity="1"><g transform="translate(137.051603, 213.818307)"><g><path d="M 3.984375 0 L -0.609375 0 L 9.734375 -20.21875 L 15.234375 -20.21875 L 18.859375 0 L 14.28125 0 L 13.546875 -4.609375 L 6.25 -4.609375 Z M 7.890625 -7.953125 L 13.015625 -7.953125 L 11.8125 -15.59375 L 11.65625 -15.59375 Z M 7.890625 -7.953125 "/></g></g></g><g fill="#25366c" fill-opacity="1"><g transform="translate(157.831406, 213.818307)"><g><path d="M 0.5 0 L 3.84375 -20.21875 L 11.828125 -20.21875 C 14.117188 -20.21875 15.796875 -19.617188 16.859375 -18.421875 C 17.929688 -17.222656 18.300781 -15.617188 17.96875 -13.609375 C 17.75 -12.234375 17.25 -11.050781 16.46875 -10.0625 C 15.6875 -9.082031 14.675781 -8.347656 13.4375 -7.859375 L 16.4375 0 L 11.71875 0 L 9.078125 -7.171875 L 5.96875 -7.171875 L 4.765625 0 Z M 6.53125 -10.59375 L 9.4375 -10.59375 C 11.863281 -10.59375 13.242188 -11.597656 13.578125 -13.609375 C 13.910156 -15.679688 12.863281 -16.71875 10.4375 -16.71875 L 7.5625 -16.71875 Z M 6.53125 -10.59375 "/></g></g></g><g fill="#25366c" fill-opacity="1"><g transform="translate(176.233276, 213.818307)"><g><path d="M 3.984375 0 L -0.609375 0 L 9.734375 -20.21875 L 15.234375 -20.21875 L 18.859375 0 L 14.28125 0 L 13.546875 -4.609375 L 6.25 -4.609375 Z M 7.890625 -7.953125 L 13.015625 -7.953125 L 11.8125 -15.59375 L 11.65625 -15.59375 Z M 7.890625 -7.953125 "/></g></g></g><g fill="#25366c" fill-opacity="1"><g transform="translate(197.013079, 213.818307)"><g><path d="M 13.828125 -14.34375 C 13.859375 -15.164062 13.617188 -15.800781 13.109375 -16.25 C 12.597656 -16.695312 11.832031 -16.921875 10.8125 -16.921875 C 9.757812 -16.921875 8.921875 -16.707031 8.296875 -16.28125 C 7.671875 -15.851562 7.304688 -15.3125 7.203125 -14.65625 C 7.054688 -13.9375 7.269531 -13.390625 7.84375 -13.015625 C 8.425781 -12.640625 9.140625 -12.351562 9.984375 -12.15625 L 11.71875 -11.71875 C 12.84375 -11.457031 13.816406 -11.078125 14.640625 -10.578125 C 15.472656 -10.078125 16.085938 -9.429688 16.484375 -8.640625 C 16.878906 -7.859375 16.984375 -6.90625 16.796875 -5.78125 C 16.484375 -3.925781 15.546875 -2.453125 13.984375 -1.359375 C 12.429688 -0.265625 10.421875 0.28125 7.953125 0.28125 C 5.503906 0.28125 3.640625 -0.273438 2.359375 -1.390625 C 1.078125 -2.515625 0.585938 -4.164062 0.890625 -6.34375 L 5.03125 -6.34375 C 4.925781 -5.332031 5.195312 -4.570312 5.84375 -4.0625 C 6.5 -3.550781 7.378906 -3.296875 8.484375 -3.296875 C 9.585938 -3.296875 10.5 -3.523438 11.21875 -3.984375 C 11.9375 -4.441406 12.359375 -5.039062 12.484375 -5.78125 C 12.597656 -6.457031 12.382812 -6.984375 11.84375 -7.359375 C 11.3125 -7.734375 10.515625 -8.050781 9.453125 -8.3125 L 7.34375 -8.859375 C 5.71875 -9.273438 4.484375 -9.925781 3.640625 -10.8125 C 2.804688 -11.695312 2.507812 -12.882812 2.75 -14.375 C 2.957031 -15.601562 3.46875 -16.675781 4.28125 -17.59375 C 5.09375 -18.507812 6.117188 -19.222656 7.359375 -19.734375 C 8.597656 -20.242188 9.957031 -20.5 11.4375 -20.5 C 12.9375 -20.5 14.203125 -20.238281 15.234375 -19.71875 C 16.265625 -19.195312 17.015625 -18.472656 17.484375 -17.546875 C 17.960938 -16.628906 18.109375 -15.5625 17.921875 -14.34375 Z M 13.828125 -14.34375 "/></g></g></g><g fill="#25366c" fill-opacity="1"><g transform="translate(215.207742, 213.818307)"><g><path d="M 8.125 -20.21875 L 4.765625 0 L 0.5 0 L 3.84375 -20.21875 Z M 8.125 -20.21875 "/></g></g></g><g fill="#25366c" fill-opacity="1"><g transform="translate(223.002633, 213.818307)"><g><path d="M 20.765625 -20.21875 L 17.40625 0 L 13.703125 0 L 7.046875 -12.71875 L 6.890625 -12.71875 L 4.765625 0 L 0.5 0 L 3.84375 -20.21875 L 7.59375 -20.21875 L 14.234375 -7.5 L 14.40625 -7.5 L 16.5 -20.21875 Z M 20.765625 -20.21875 "/></g></g></g><g fill="#25366c" fill-opacity="1"><g transform="translate(243.427223, 213.818307)"><g><path d="M 16.171875 -13.6875 C 16.066406 -14.632812 15.726562 -15.375 15.15625 -15.90625 C 14.582031 -16.445312 13.75 -16.71875 12.65625 -16.71875 C 11.625 -16.71875 10.65625 -16.457031 9.75 -15.9375 C 8.851562 -15.425781 8.085938 -14.679688 7.453125 -13.703125 C 6.828125 -12.722656 6.398438 -11.53125 6.171875 -10.125 C 5.816406 -8.007812 5.992188 -6.375 6.703125 -5.21875 C 7.410156 -4.070312 8.5625 -3.5 10.15625 -3.5 C 11.582031 -3.5 12.785156 -3.867188 13.765625 -4.609375 C 14.742188 -5.347656 15.347656 -6.34375 15.578125 -7.59375 L 11.25 -7.59375 L 11.78125 -10.8125 L 20.234375 -10.8125 L 19.796875 -8.265625 C 19.515625 -6.492188 18.894531 -4.96875 17.9375 -3.6875 C 16.976562 -2.414062 15.78125 -1.4375 14.34375 -0.75 C 12.914062 -0.0625 11.347656 0.28125 9.640625 0.28125 C 7.742188 0.28125 6.148438 -0.132812 4.859375 -0.96875 C 3.566406 -1.8125 2.648438 -3.007812 2.109375 -4.5625 C 1.566406 -6.113281 1.46875 -7.957031 1.8125 -10.09375 C 2.175781 -12.269531 2.90625 -14.132812 4 -15.6875 C 5.09375 -17.25 6.421875 -18.441406 7.984375 -19.265625 C 9.546875 -20.085938 11.21875 -20.5 13 -20.5 C 14.53125 -20.5 15.863281 -20.207031 17 -19.625 C 18.132812 -19.039062 19.015625 -18.238281 19.640625 -17.21875 C 20.265625 -16.195312 20.554688 -15.019531 20.515625 -13.6875 Z M 16.171875 -13.6875 "/></g></g></g><g fill="#25366c" fill-opacity="1"><g transform="translate(264.562239, 213.818307)"><g><path d="M 0.5 0 L 3.84375 -20.21875 L 8.125 -20.21875 L 6.734375 -11.875 L 15.421875 -11.875 L 16.796875 -20.21875 L 21.0625 -20.21875 L 17.703125 0 L 13.4375 0 L 14.828125 -8.34375 L 6.15625 -8.34375 L 4.765625 0 Z M 0.5 0 "/></g></g></g><g fill="#25366c" fill-opacity="1"><g transform="translate(285.292706, 213.818307)"><g><path d="M 0.5 0 L 3.84375 -20.21875 L 17.46875 -20.21875 L 16.875 -16.6875 L 7.53125 -16.6875 L 6.734375 -11.875 L 15.390625 -11.875 L 14.796875 -8.34375 L 6.15625 -8.34375 L 5.359375 -3.53125 L 14.75 -3.53125 L 14.15625 0 Z M 0.5 0 "/></g></g></g><g fill="#e80f17" fill-opacity="1"><g transform="translate(196.055134, 230.712582)"><g><path d="M 1.546875 -8.09375 L 3.65625 -8.09375 L 4.984375 -2.65625 L 5.078125 -2.65625 L 8.203125 -8.09375 L 10.3125 -8.09375 L 8.96875 0 L 7.3125 0 L 8.1875 -5.265625 L 8.109375 -5.265625 L 5.15625 -0.046875 L 4.03125 -0.046875 L 2.8125 -5.28125 L 2.734375 -5.28125 L 1.859375 0 L 0.203125 0 Z M 1.546875 -8.09375 "/></g></g></g><g fill="#e80f17" fill-opacity="1"><g transform="translate(207.864881, 230.712582)"><g><path d="M 2.921875 0.125 C 2.296875 0.125 1.78125 -0.00390625 1.375 -0.265625 C 0.976562 -0.535156 0.695312 -0.90625 0.53125 -1.375 C 0.363281 -1.851562 0.332031 -2.40625 0.4375 -3.03125 C 0.53125 -3.65625 0.734375 -4.203125 1.046875 -4.671875 C 1.367188 -5.140625 1.773438 -5.5 2.265625 -5.75 C 2.753906 -6.007812 3.300781 -6.140625 3.90625 -6.140625 C 4.519531 -6.140625 5.03125 -6.007812 5.4375 -5.75 C 5.84375 -5.488281 6.128906 -5.117188 6.296875 -4.640625 C 6.460938 -4.171875 6.492188 -3.617188 6.390625 -2.984375 C 6.285156 -2.367188 6.078125 -1.828125 5.765625 -1.359375 C 5.453125 -0.890625 5.050781 -0.523438 4.5625 -0.265625 C 4.070312 -0.00390625 3.523438 0.125 2.921875 0.125 Z M 3.078125 -1.1875 C 3.503906 -1.1875 3.859375 -1.363281 4.140625 -1.71875 C 4.421875 -2.070312 4.609375 -2.515625 4.703125 -3.046875 C 4.785156 -3.566406 4.75 -4 4.59375 -4.34375 C 4.4375 -4.6875 4.148438 -4.859375 3.734375 -4.859375 C 3.304688 -4.859375 2.953125 -4.679688 2.671875 -4.328125 C 2.398438 -3.972656 2.21875 -3.53125 2.125 -3 C 2.039062 -2.476562 2.078125 -2.046875 2.234375 -1.703125 C 2.390625 -1.359375 2.671875 -1.1875 3.078125 -1.1875 Z M 3.078125 -1.1875 "/></g></g></g><g fill="#e80f17" fill-opacity="1"><g transform="translate(216.32563, 230.712582)"><g><path d="M 4.40625 -6.0625 L 4.203125 -4.796875 L 3.046875 -4.796875 L 2.5625 -1.859375 C 2.519531 -1.628906 2.546875 -1.472656 2.640625 -1.390625 C 2.734375 -1.304688 2.863281 -1.265625 3.03125 -1.265625 C 3.113281 -1.265625 3.191406 -1.269531 3.265625 -1.28125 C 3.347656 -1.300781 3.410156 -1.316406 3.453125 -1.328125 L 3.53125 -0.078125 C 3.425781 -0.046875 3.296875 -0.015625 3.140625 0.015625 C 2.984375 0.0546875 2.796875 0.078125 2.578125 0.078125 C 1.960938 0.109375 1.492188 -0.0195312 1.171875 -0.3125 C 0.847656 -0.601562 0.738281 -1.046875 0.84375 -1.640625 L 1.359375 -4.796875 L 0.53125 -4.796875 L 0.75 -6.0625 L 1.578125 -6.0625 L 1.8125 -7.515625 L 3.5 -7.515625 L 3.265625 -6.0625 Z M 4.40625 -6.0625 "/></g></g></g><g fill="#e80f17" fill-opacity="1"><g transform="translate(222.282539, 230.712582)"><g><path d="M 2.921875 0.125 C 2.296875 0.125 1.78125 -0.00390625 1.375 -0.265625 C 0.976562 -0.535156 0.695312 -0.90625 0.53125 -1.375 C 0.363281 -1.851562 0.332031 -2.40625 0.4375 -3.03125 C 0.53125 -3.65625 0.734375 -4.203125 1.046875 -4.671875 C 1.367188 -5.140625 1.773438 -5.5 2.265625 -5.75 C 2.753906 -6.007812 3.300781 -6.140625 3.90625 -6.140625 C 4.519531 -6.140625 5.03125 -6.007812 5.4375 -5.75 C 5.84375 -5.488281 6.128906 -5.117188 6.296875 -4.640625 C 6.460938 -4.171875 6.492188 -3.617188 6.390625 -2.984375 C 6.285156 -2.367188 6.078125 -1.828125 5.765625 -1.359375 C 5.453125 -0.890625 5.050781 -0.523438 4.5625 -0.265625 C 4.070312 -0.00390625 3.523438 0.125 2.921875 0.125 Z M 3.078125 -1.1875 C 3.503906 -1.1875 3.859375 -1.363281 4.140625 -1.71875 C 4.421875 -2.070312 4.609375 -2.515625 4.703125 -3.046875 C 4.785156 -3.566406 4.75 -4 4.59375 -4.34375 C 4.4375 -4.6875 4.148438 -4.859375 3.734375 -4.859375 C 3.304688 -4.859375 2.953125 -4.679688 2.671875 -4.328125 C 2.398438 -3.972656 2.21875 -3.53125 2.125 -3 C 2.039062 -2.476562 2.078125 -2.046875 2.234375 -1.703125 C 2.390625 -1.359375 2.671875 -1.1875 3.078125 -1.1875 Z M 3.078125 -1.1875 "/></g></g></g><g fill="#e80f17" fill-opacity="1"><g transform="translate(230.743287, 230.712582)"><g><path d="M 0.171875 0 L 1.171875 -6.0625 L 2.8125 -6.0625 L 2.625 -5.015625 L 2.6875 -5.015625 C 2.863281 -5.390625 3.097656 -5.671875 3.390625 -5.859375 C 3.679688 -6.054688 4 -6.15625 4.34375 -6.15625 C 4.664062 -6.15625 4.925781 -6.082031 5.125 -5.9375 L 4.40625 -4.546875 C 4.332031 -4.585938 4.25 -4.617188 4.15625 -4.640625 C 4.0625 -4.671875 3.957031 -4.6875 3.84375 -4.6875 C 3.507812 -4.6875 3.203125 -4.566406 2.921875 -4.328125 C 2.648438 -4.097656 2.476562 -3.800781 2.40625 -3.4375 L 1.84375 0 Z M 0.171875 0 "/></g></g></g><g fill="#e80f17" fill-opacity="1"><g transform="translate(237.146456, 230.712582)"><g><path d="M 5.9375 -4.34375 L 4.40625 -4.25 C 4.394531 -4.445312 4.316406 -4.613281 4.171875 -4.75 C 4.035156 -4.882812 3.828125 -4.953125 3.546875 -4.953125 C 3.273438 -4.953125 3.03125 -4.890625 2.8125 -4.765625 C 2.59375 -4.640625 2.472656 -4.476562 2.453125 -4.28125 C 2.421875 -4.144531 2.445312 -4.035156 2.53125 -3.953125 C 2.625 -3.867188 2.804688 -3.796875 3.078125 -3.734375 L 4.15625 -3.515625 C 5.300781 -3.273438 5.800781 -2.707031 5.65625 -1.8125 C 5.59375 -1.414062 5.421875 -1.070312 5.140625 -0.78125 C 4.867188 -0.5 4.519531 -0.273438 4.09375 -0.109375 C 3.675781 0.046875 3.210938 0.125 2.703125 0.125 C 1.878906 0.125 1.25 -0.0390625 0.8125 -0.375 C 0.382812 -0.71875 0.179688 -1.179688 0.203125 -1.765625 L 1.84375 -1.84375 C 1.875 -1.351562 2.179688 -1.101562 2.765625 -1.09375 C 3.078125 -1.09375 3.34375 -1.15625 3.5625 -1.28125 C 3.78125 -1.414062 3.90625 -1.582031 3.9375 -1.78125 C 3.957031 -1.925781 3.914062 -2.039062 3.8125 -2.125 C 3.71875 -2.207031 3.539062 -2.273438 3.28125 -2.328125 L 2.265625 -2.53125 C 1.109375 -2.769531 0.613281 -3.375 0.78125 -4.34375 C 0.875 -4.90625 1.175781 -5.34375 1.6875 -5.65625 C 2.195312 -5.976562 2.828125 -6.140625 3.578125 -6.140625 C 4.367188 -6.140625 4.960938 -5.976562 5.359375 -5.65625 C 5.765625 -5.332031 5.957031 -4.894531 5.9375 -4.34375 Z M 5.9375 -4.34375 "/></g></g></g><g fill="#e80f17" fill-opacity="1"><g transform="translate(245.030608, 230.712582)"><g/></g></g><g fill="#e80f17" fill-opacity="1"><g transform="translate(249.245873, 230.712582)"><g><path d="M 0.203125 0 L 1.546875 -8.09375 L 4.734375 -8.09375 C 5.347656 -8.09375 5.847656 -7.972656 6.234375 -7.734375 C 6.628906 -7.503906 6.90625 -7.179688 7.0625 -6.765625 C 7.226562 -6.359375 7.265625 -5.882812 7.171875 -5.34375 C 7.085938 -4.8125 6.894531 -4.335938 6.59375 -3.921875 C 6.289062 -3.515625 5.898438 -3.195312 5.421875 -2.96875 C 4.953125 -2.738281 4.40625 -2.625 3.78125 -2.625 L 2.34375 -2.625 L 1.90625 0 Z M 2.578125 -4 L 3.734375 -4 C 4.222656 -4 4.609375 -4.125 4.890625 -4.375 C 5.171875 -4.625 5.347656 -4.945312 5.421875 -5.34375 C 5.484375 -5.75 5.414062 -6.070312 5.21875 -6.3125 C 5.019531 -6.5625 4.675781 -6.6875 4.1875 -6.6875 L 3.03125 -6.6875 Z M 2.578125 -4 "/></g></g></g><g fill="#e80f17" fill-opacity="1"><g transform="translate(258.077856, 230.712582)"><g><path d="M 6.828125 -6.0625 L 3.703125 0 L 1.8125 0 L 0.6875 -6.0625 L 2.46875 -6.0625 L 3 -1.71875 L 3.0625 -1.71875 L 5.046875 -6.0625 Z M 6.828125 -6.0625 "/></g></g></g><g fill="#e80f17" fill-opacity="1"><g transform="translate(266.230563, 230.712582)"><g><path d="M 4.40625 -6.0625 L 4.203125 -4.796875 L 3.046875 -4.796875 L 2.5625 -1.859375 C 2.519531 -1.628906 2.546875 -1.472656 2.640625 -1.390625 C 2.734375 -1.304688 2.863281 -1.265625 3.03125 -1.265625 C 3.113281 -1.265625 3.191406 -1.269531 3.265625 -1.28125 C 3.347656 -1.300781 3.410156 -1.316406 3.453125 -1.328125 L 3.53125 -0.078125 C 3.425781 -0.046875 3.296875 -0.015625 3.140625 0.015625 C 2.984375 0.0546875 2.796875 0.078125 2.578125 0.078125 C 1.960938 0.109375 1.492188 -0.0195312 1.171875 -0.3125 C 0.847656 -0.601562 0.738281 -1.046875 0.84375 -1.640625 L 1.359375 -4.796875 L 0.53125 -4.796875 L 0.75 -6.0625 L 1.578125 -6.0625 L 1.8125 -7.515625 L 3.5 -7.515625 L 3.265625 -6.0625 Z M 4.40625 -6.0625 "/></g></g></g><g fill="#e80f17" fill-opacity="1"><g transform="translate(272.18747, 230.712582)"><g><path d="M 1.078125 -3.25 C 1.390625 -5.1875 2.195312 -6.847656 3.5 -8.234375 L 5.109375 -8.234375 C 4.773438 -7.890625 4.453125 -7.445312 4.140625 -6.90625 C 3.835938 -6.363281 3.566406 -5.773438 3.328125 -5.140625 C 3.097656 -4.503906 2.929688 -3.875 2.828125 -3.25 C 2.722656 -2.625 2.679688 -1.992188 2.703125 -1.359375 C 2.722656 -0.722656 2.796875 -0.132812 2.921875 0.40625 C 3.054688 0.957031 3.234375 1.410156 3.453125 1.765625 L 1.84375 1.765625 C 1.007812 0.367188 0.753906 -1.300781 1.078125 -3.25 Z M 1.078125 -3.25 "/></g></g></g><g fill="#e80f17" fill-opacity="1"><g transform="translate(278.37343, 230.712582)"><g><path d="M 0.203125 0 L 1.546875 -8.09375 L 3.25 -8.09375 L 2.140625 -1.40625 L 5.609375 -1.40625 L 5.375 0 Z M 0.203125 0 "/></g></g></g><g fill="#e80f17" fill-opacity="1"><g transform="translate(286.320774, 230.712582)"><g><path d="M 4.40625 -6.0625 L 4.203125 -4.796875 L 3.046875 -4.796875 L 2.5625 -1.859375 C 2.519531 -1.628906 2.546875 -1.472656 2.640625 -1.390625 C 2.734375 -1.304688 2.863281 -1.265625 3.03125 -1.265625 C 3.113281 -1.265625 3.191406 -1.269531 3.265625 -1.28125 C 3.347656 -1.300781 3.410156 -1.316406 3.453125 -1.328125 L 3.53125 -0.078125 C 3.425781 -0.046875 3.296875 -0.015625 3.140625 0.015625 C 2.984375 0.0546875 2.796875 0.078125 2.578125 0.078125 C 1.960938 0.109375 1.492188 -0.0195312 1.171875 -0.3125 C 0.847656 -0.601562 0.738281 -1.046875 0.84375 -1.640625 L 1.359375 -4.796875 L 0.53125 -4.796875 L 0.75 -6.0625 L 1.578125 -6.0625 L 1.8125 -7.515625 L 3.5 -7.515625 L 3.265625 -6.0625 Z M 4.40625 -6.0625 "/></g></g></g><g fill="#e80f17" fill-opacity="1"><g transform="translate(292.277681, 230.712582)"><g><path d="M 2.390625 0.09375 C 1.929688 0.09375 1.535156 -0.0195312 1.203125 -0.25 C 0.867188 -0.488281 0.628906 -0.84375 0.484375 -1.3125 C 0.347656 -1.78125 0.335938 -2.351562 0.453125 -3.03125 C 0.566406 -3.71875 0.773438 -4.289062 1.078125 -4.75 C 1.378906 -5.21875 1.734375 -5.566406 2.140625 -5.796875 C 2.546875 -6.023438 2.972656 -6.140625 3.421875 -6.140625 C 3.765625 -6.140625 4.039062 -6.082031 4.25 -5.96875 C 4.457031 -5.851562 4.617188 -5.710938 4.734375 -5.546875 C 4.847656 -5.378906 4.925781 -5.210938 4.96875 -5.046875 L 5.015625 -5.046875 L 5.515625 -8.09375 L 7.203125 -8.09375 L 5.859375 0 L 4.203125 0 L 4.359375 -0.96875 L 4.296875 -0.96875 C 4.191406 -0.800781 4.050781 -0.632812 3.875 -0.46875 C 3.707031 -0.300781 3.5 -0.164062 3.25 -0.0625 C 3.007812 0.0390625 2.722656 0.09375 2.390625 0.09375 Z M 3.140625 -1.234375 C 3.546875 -1.234375 3.890625 -1.394531 4.171875 -1.71875 C 4.453125 -2.050781 4.632812 -2.488281 4.71875 -3.03125 C 4.8125 -3.570312 4.769531 -4.003906 4.59375 -4.328125 C 4.425781 -4.648438 4.132812 -4.8125 3.71875 -4.8125 C 3.300781 -4.8125 2.957031 -4.644531 2.6875 -4.3125 C 2.425781 -3.988281 2.253906 -3.5625 2.171875 -3.03125 C 2.078125 -2.5 2.109375 -2.066406 2.265625 -1.734375 C 2.429688 -1.398438 2.722656 -1.234375 3.140625 -1.234375 Z M 3.140625 -1.234375 "/></g></g></g><g fill="#e80f17" fill-opacity="1"><g transform="translate(300.983292, 230.712582)"><g><path d="M 3.546875 -3.234375 C 3.234375 -1.296875 2.425781 0.363281 1.125 1.75 L -0.484375 1.75 C -0.148438 1.40625 0.164062 0.960938 0.46875 0.421875 C 0.78125 -0.117188 1.050781 -0.707031 1.28125 -1.34375 C 1.519531 -1.976562 1.691406 -2.609375 1.796875 -3.234375 C 1.898438 -3.859375 1.941406 -4.488281 1.921875 -5.125 C 1.898438 -5.757812 1.820312 -6.347656 1.6875 -6.890625 C 1.5625 -7.441406 1.390625 -7.894531 1.171875 -8.25 L 2.78125 -8.25 C 3.613281 -6.851562 3.867188 -5.179688 3.546875 -3.234375 Z M 3.546875 -3.234375 "/></g></g></g><path stroke-linecap="butt" transform="matrix(0.75, 0.000000000000000289, -0.000000000000000289, 0.75, 72.046545, 225.837583)" fill="none" stroke-linejoin="miter" d="M 0.000439508 2.497806 L 147.651491 2.497806 " stroke="#e80f17" stroke-width="5" stroke-opacity="1" stroke-miterlimit="4"/></svg>